<?xml version="1.0" standalone="yes"?>
<svg xmlns="http://www.w3.org/2000/svg" width="400" height="400">
<path style="fill:#ffffff; stroke:none;" d="M0 0L0 183L1 183C1 92.3117 92.3117 1 183 1L165 0L129 0L0 0z"/>
<path style="fill:#010101; stroke:none;" d="M183 0.424377C147.343 5.16339 116.411 15.0739 86 34.865C-13.9438 99.9072 -27.5703 249.044 51.6898 335.003C99.0289 386.343 165.745 406.712 234 397.711C259.489 394.349 285.546 383.371 307 369.505C328.904 355.347 348.753 337.482 363.792 316C425.162 228.333 405.782 106.561 322 40.7901C303.063 25.9245 280.994 15.0473 258 8.22992C234.475 1.2551 207.588 -2.84357 183 0.424377z"/>
<path style="fill:#ffffff; stroke:none;" d="M217 0L217 1C307.688 1 399 92.3117 399 183L400 183L400 0L217 0z"/>
<path style="fill:#7f7f7f; stroke:none;" d="M169 1L169 2L175 2L169 1M225 1L225 2L231 2L225 1M150 5L150 6L153 6L150 5M247 5L247 6L250 6L247 5M144 7L145 8L144 7M255 7L256 8L255 7M139.667 8.33334L140.333 8.66666L139.667 8.33334z"/>
<path style="fill:#3f3f3f; stroke:none;" d="M141 8L142 9L141 8M258 8L259 9L258 8z"/>
<path style="fill:#7f7f7f; stroke:none;" d="M259.667 8.33334L260.333 8.66666L259.667 8.33334M128.667 12.3333L129.333 12.6667L128.667 12.3333M270.667 12.3333L271.333 12.6667L270.667 12.3333M119 16L120 17L119 16M280 16L281 17L280 16M112 19L113 20L112 19M287 19L288 20L287 19M108 21L109 22L108 21M291 21L292 22L291 21M104 23L105 24L104 23z"/>
<path style="fill:#3f3f3f; stroke:none;" d="M105 23L106 24L105 23M294 23L295 24L294 23z"/>
<path style="fill:#7f7f7f; stroke:none;" d="M295 23L296 24L295 23M101 25L102 26L101 25M298 25L299 26L298 25z"/>
<path style="fill:#bfbfbf; stroke:none;" d="M98 26L99 27L98 26z"/>
<path style="fill:#7f7f7f; stroke:none;" d="M99 26L100 27L99 26M300 26L301 27L300 26z"/>
<path style="fill:#bfbfbf; stroke:none;" d="M301 26L302 27L301 26z"/>
<path style="fill:#7f7f7f; stroke:none;" d="M94 29L95 30L94 29M305 29L306 30L305 29M92.6667 30.3333L93.3333 30.6667L92.6667 30.3333M306.667 30.3333L307.333 30.6667L306.667 30.3333M91 31L92 32L91 31M308 31L309 32L308 31z"/>
<path style="fill:#bfbfbf; stroke:none;" d="M87 33L88 34L87 33z"/>
<path style="fill:#7f7f7f; stroke:none;" d="M88 33L89 34L88 33M311 33L312 34L311 33z"/>
<path style="fill:#bfbfbf; stroke:none;" d="M312 33L313 34L312 33z"/>
<path style="fill:#7f7f7f; stroke:none;" d="M82 37L83 38L82 37M317 37L318 38L317 37z"/>
<path style="fill:#bfbfbf; stroke:none;" d="M76 41L77 42L76 41z"/>
<path style="fill:#7f7f7f; stroke:none;" d="M77 41L78 42L77 41M322 41L323 42L322 41z"/>
<path style="fill:#bfbfbf; stroke:none;" d="M323 41L324 42L323 41z"/>
<path style="fill:#7f7f7f; stroke:none;" d="M73 44L74 45L73 44M326 44L327 45L326 44z"/>
<path style="fill:#3f3f3f; stroke:none;" d="M69 48L70 49L69 48M330 48L331 49L330 48z"/>
<path style="fill:#7f7f7f; stroke:none;" d="M66 50L67 51L66 50M333 50L334 51L333 50M65 51L66 52L65 51M334 51L335 52L334 51M62 54L63 55L62 54M337 54L338 55L337 54M61 55L62 56L61 55M338 55L339 56L338 55z"/>
<path style="fill:#3f3f3f; stroke:none;" d="M58 58L59 59L58 58M341 58L342 59L341 58z"/>
<path style="fill:#7f7f7f; stroke:none;" d="M55 61L56 62L55 61M344 61L345 62L344 61M54 62L55 63L54 62M345 62L346 63L345 62M51 65L52 66L51 65M348 65L349 66L348 65M50 66L51 67L50 66M349 66L350 67L349 66z"/>
<path style="fill:#3f3f3f; stroke:none;" d="M48 69L49 70L48 69M351 69L352 70L351 69z"/>
<path style="fill:#7f7f7f; stroke:none;" d="M44 73L45 74L44 73M355 73L356 74L355 73z"/>
<path style="fill:#bfbfbf; stroke:none;" d="M41 76L42 77L41 76M358 76L359 77L358 76z"/>
<path style="fill:#7f7f7f; stroke:none;" d="M41 77L42 78L41 77M358 77L359 78L358 77M37 82L38 83L37 82M362 82L363 83L362 82z"/>
<path style="fill:#bfbfbf; stroke:none;" d="M33 87L34 88L33 87M366 87L367 88L366 87z"/>
<path style="fill:#7f7f7f; stroke:none;" d="M33 88L34 89L33 88M366 88L367 89L366 88M31 91L32 92L31 91M368 91L369 92L368 91M30.3333 92.6667L30.6667 93.3333L30.3333 92.6667M369.333 92.6667L369.667 93.3333L369.333 92.6667M29 94L30 95L29 94M370 94L371 95L370 94z"/>
<path style="fill:#bfbfbf; stroke:none;" d="M26 98L27 99L26 98M373 98L374 99L373 98z"/>
<path style="fill:#7f7f7f; stroke:none;" d="M26 99L27 100L26 99M373 99L374 100L373 99M25 101L26 102L25 101M374 101L375 102L374 101M23 104L24 105L23 104M376 104L377 105L376 104z"/>
<path style="fill:#3f3f3f; stroke:none;" d="M23 105L24 106L23 105M376 105L377 106L376 105z"/>
<path style="fill:#7f7f7f; stroke:none;" d="M21 108L22 109L21 108M378 108L379 109L378 108M19 112L20 113L19 112M380 112L381 113L380 112M16 119L17 120L16 119M383 119L384 120L383 119M12.3333 128.667L12.6667 129.333L12.3333 128.667M387.333 128.667L387.667 129.333L387.333 128.667z"/>
<path style="fill:#ffffff; stroke:none;" d="M58 130C58.5437 136.822 66.0149 137.835 70.9961 141.429C78.2977 146.698 84.6747 154.19 89.0764 162.039C108.378 196.461 121.427 235.854 137.28 272C141.947 282.64 146.734 293.231 151.1 304C152.451 307.331 154.271 313.036 158.91 312.534C165.107 311.863 169.573 296.803 172.062 292C183.263 270.378 193.381 247.807 206 227C211.054 239.32 216.096 252.003 221.85 264C227.479 275.735 231.875 288.092 237.14 300C238.631 303.373 240.413 310.944 244.259 312.338C249.224 314.138 251.353 306.145 252.766 303C257.959 291.44 263.135 279.756 267.87 268C281.412 234.373 296.476 201.166 311.14 168C317.75 153.048 323.291 136.631 342 135L342 130L286 130L286 135C293.186 136.056 305.055 139.185 306.102 148C307.135 156.702 297.436 171.03 294.019 179C284.295 201.686 274.828 224.65 264.359 247C260.432 255.382 257.956 267.742 251 274C245.674 250.437 226.055 229.824 222.009 206C220.835 199.088 227.691 190.079 230.471 184C239.539 164.165 247.715 137.205 273 135L273 130L219 130L219 135C224.709 135.246 234.13 135.799 236.647 142.019C238.382 146.308 234.577 152.166 232.859 156C227.863 167.151 222.481 186.206 213 194C210.281 181.374 202.367 168.823 197.14 157C195.407 153.082 191.284 147.442 191.904 143.005C192.728 137.096 200.14 135.484 205 135L205 130L143 130L143 135C172.936 135.618 178.289 168.194 188.886 191C191.987 197.675 200.369 209.5 199.012 217C197.757 223.932 191.805 231.826 188.446 238C180.911 251.849 174.622 266.805 166 280C152.42 248.281 137.852 216.918 124.694 185C120.57 174.994 108.944 158.754 109.281 148C109.554 139.291 122.195 136.001 129 135L129 130L58 130z"/>
<path style="fill:#7f7f7f; stroke:none;" d="M205 130L205 135L206 135L205 130M273 130L273 135L274 135L273 130M337 135L338 136L337 135M62 136L63 137L62 136M64.6667 137.333L65.3333 137.667L64.6667 137.333M118 137L119 138L118 137z"/>
<path style="fill:#3f3f3f; stroke:none;" d="M119 137L120 138L119 137z"/>
<path style="fill:#7f7f7f; stroke:none;" d="M158.667 137.333L159.333 137.667L158.667 137.333z"/>
<path style="fill:#bfbfbf; stroke:none;" d="M194 137L195 138L194 137z"/>
<path style="fill:#7f7f7f; stroke:none;" d="M232 137L233 138L232 137z"/>
<path style="fill:#bfbfbf; stroke:none;" d="M233 137L234 138L233 137z"/>
<path style="fill:#7f7f7f; stroke:none;" d="M261 137L262 138L261 137z"/>
<path style="fill:#3f3f3f; stroke:none;" d="M262 137L263 138L262 137z"/>
<path style="fill:#7f7f7f; stroke:none;" d="M295 137L295 138L298 138L295 137z"/>
<path style="fill:#bfbfbf; stroke:none;" d="M330 137L331 138L330 137z"/>
<path style="fill:#7f7f7f; stroke:none;" d="M331.667 137.333L332.333 137.667L331.667 137.333M116 138L117 139L116 138M8.33333 139.667L8.66667 140.333L8.33333 139.667M391.333 139.667L391.667 140.333L391.333 139.667M69 140L70 141L69 140M301 140L302 141L301 140M326 140L327 141L326 140z"/>
<path style="fill:#3f3f3f; stroke:none;" d="M8 141L9 142L8 141z"/>
<path style="fill:#7f7f7f; stroke:none;" d="M71 141L72 142L71 141z"/>
<path style="fill:#3f3f3f; stroke:none;" d="M112 141L113 142L112 141z"/>
<path style="fill:#7f7f7f; stroke:none;" d="M165 141L166 142L165 141z"/>
<path style="fill:#bfbfbf; stroke:none;" d="M191 141L192 142L191 141z"/>
<path style="fill:#7f7f7f; stroke:none;" d="M254 141L255 142L254 141z"/>
<path style="fill:#3f3f3f; stroke:none;" d="M255 141L256 142L255 141z"/>
<path style="fill:#7f7f7f; stroke:none;" d="M302 141L303 142L302 141M325 141L326 142L325 141z"/>
<path style="fill:#3f3f3f; stroke:none;" d="M391 141L392 142L391 141z"/>
<path style="fill:#7f7f7f; stroke:none;" d="M166 142L167 143L166 142M191 142L191 145L192 145L191 142M237 142L237 145L238 145L237 142M73 143L74 144L73 143M323 143L324 144L323 143M7 144L8 145L7 144M74.6667 144.333L75.3333 144.667L74.6667 144.333M109 144L110 145L109 144z"/>
<path style="fill:#3f3f3f; stroke:none;" d="M251 144L252 145L251 144z"/>
<path style="fill:#7f7f7f; stroke:none;" d="M305 144L306 145L305 144M392 144L393 145L392 144M76 145L77 146L76 145M169.333 147.667L169.667 148.333L169.333 147.667M248 147L249 148L248 147M79 148L80 149L79 148M236 148L237 149L236 148z"/>
<path style="fill:#bfbfbf; stroke:none;" d="M319 148L320 149L319 148z"/>
<path style="fill:#7f7f7f; stroke:none;" d="M319 149L320 150L319 149M5 150L5 153L6 153L5 150M80 150L81 151L80 150M394 150L394 153L395 153L394 150M81 151L82 152L81 151M109 151L110 152L109 151M194 151L195 152L194 151z"/>
<path style="fill:#3f3f3f; stroke:none;" d="M305 151L306 152L305 151z"/>
<path style="fill:#7f7f7f; stroke:none;" d="M318 151L319 152L318 151M305 152L306 153L305 152M83.3333 153.667L83.6667 154.333L83.3333 153.667M233 154L234 155L233 154M244 154L245 155L244 154M84 155L85 156L84 155z"/>
<path style="fill:#bfbfbf; stroke:none;" d="M173 155L174 156L173 155M233 155L234 156L233 155z"/>
<path style="fill:#3f3f3f; stroke:none;" d="M244 155L245 156L244 155z"/>
<path style="fill:#7f7f7f; stroke:none;" d="M304 155L305 156L304 155M316.333 155.667L316.667 156.333L316.333 155.667M112.333 156.667L112.667 157.333L112.333 156.667M173 156L174 157L173 156z"/>
<path style="fill:#bfbfbf; stroke:none;" d="M87 158L88 159L87 158M112 158L113 159L112 158z"/>
<path style="fill:#7f7f7f; stroke:none;" d="M174 158L175 159L174 158M231 158L232 159L231 158M242 158L243 159L242 158M302 158L303 159L302 158M315 158L316 159L315 158M87 159L88 160L87 159M198.333 159.667L198.667 160.333L198.333 159.667M230.333 160.667L230.667 161.333L230.333 160.667M241.333 160.667L241.667 161.333L241.333 160.667M301 161L302 162L301 161M89 162L90 163L89 162z"/>
<path style="fill:#bfbfbf; stroke:none;" d="M176 162L177 163L176 162z"/>
<path style="fill:#7f7f7f; stroke:none;" d="M199 162L200 163L199 162z"/>
<path style="fill:#bfbfbf; stroke:none;" d="M301 162L302 163L301 162z"/>
<path style="fill:#7f7f7f; stroke:none;" d="M176 163L177 164L176 163M312.333 164.667L312.667 165.333L312.333 164.667M91 166L92 167L91 166M116 166L117 167L116 166z"/>
<path style="fill:#3f3f3f; stroke:none;" d="M201 166L202 167L201 166z"/>
<path style="fill:#7f7f7f; stroke:none;" d="M201 167L202 168L201 167M298 168L299 169L298 168M1 169L1 175L2 175L1 169M92 169L93 170L92 169M179 169L180 170L179 169M202 169L203 170L202 169M226 169L227 170L226 169M237 169L238 170L237 169z"/>
<path style="fill:#bfbfbf; stroke:none;" d="M298 169L299 170L298 169z"/>
<path style="fill:#7f7f7f; stroke:none;" d="M310 169L311 170L310 169M398 169L398 175L399 175L398 169M180.333 171.667L180.667 172.333L180.333 171.667M94.3333 173.667L94.6667 174.333L94.3333 173.667M119 173L120 174L119 173M224 173L225 174L224 173M235 173L236 174L235 173M296 173L297 174L296 173M308.333 173.667L308.667 174.333L308.333 173.667M205 175L206 176L205 175M223.333 175.667L223.667 176.333L223.333 175.667M95 176L96 177L95 176M182 176L183 177L182 176z"/>
<path style="fill:#bfbfbf; stroke:none;" d="M205 176L206 177L205 176M233 176L234 177L233 176z"/>
<path style="fill:#3f3f3f; stroke:none;" d="M294 176L295 177L294 176z"/>
<path style="fill:#7f7f7f; stroke:none;" d="M307 176L308 177L307 176M233 177L234 178L233 177M294.333 177.667L294.667 178.333L294.333 177.667M183.333 178.667L183.667 179.333L183.333 178.667M221 180L222 181L221 180M293 180L294 181L293 180z"/>
<path style="fill:#bfbfbf; stroke:none;" d="M305 180L306 181L305 180z"/>
<path style="fill:#7f7f7f; stroke:none;" d="M123.333 181.667L123.667 182.333L123.333 181.667M208.333 181.667L208.667 182.333L208.333 181.667M305 181L306 182L305 181M98 182L99 183L98 182z"/>
<path style="fill:#3f3f3f; stroke:none;" d="M98 183L99 184L98 183z"/>
<path style="fill:#7f7f7f; stroke:none;" d="M185 183L186 184L185 183z"/>
<path style="fill:#bfbfbf; stroke:none;" d="M208 183L209 184L208 183z"/>
<path style="fill:#3f3f3f; stroke:none;" d="M219 183L220 184L219 183z"/>
<path style="fill:#7f7f7f; stroke:none;" d="M230 183L231 184L230 183M304 183L305 184L304 183M219 184L220 185L219 184M291.333 184.667L291.667 185.333L291.333 184.667M100 187L101 188L100 187M187 187L188 188L187 187M290 187L291 188L290 187M302 187L303 188L302 187M126 188L126 191L127 191L126 188M101.333 189.667L101.667 190.333L101.333 189.667M301.333 189.667L301.667 190.333L301.333 189.667M212.333 190.667L212.667 191.333L212.333 190.667M216 190L217 191L216 190z"/>
<path style="fill:#bfbfbf; stroke:none;" d="M216 191L217 192L216 191M226 191L227 192L226 191z"/>
<path style="fill:#7f7f7f; stroke:none;" d="M288 191L289 192L288 191M226 192L227 193L226 192M287 193L288 194L287 193M103 194L104 195L103 194M225 194L226 195L225 194z"/>
<path style="fill:#bfbfbf; stroke:none;" d="M287 194L288 195L287 194z"/>
<path style="fill:#7f7f7f; stroke:none;" d="M299 194L300 195L299 194M191.333 195.667L191.667 196.333L191.333 195.667M298.333 196.667L298.667 197.333L298.333 196.667M105.333 198.667L105.667 199.333L105.333 198.667M130 198L131 199L130 198M192 198L193 199L192 198M223 198L224 199L223 198M285 198L286 199L285 198z"/>
<path style="fill:#3f3f3f; stroke:none;" d="M298 198L299 199L298 198z"/>
<path style="fill:#7f7f7f; stroke:none;" d="M106 201L107 202L106 201M131 201L132 202L131 201M296 201L297 202L296 201M194.333 202.667L194.667 203.333L194.333 202.667M283.333 202.667L283.667 203.333L283.333 202.667z"/>
<path style="fill:#bfbfbf; stroke:none;" d="M108 205L109 206L108 205z"/>
<path style="fill:#7f7f7f; stroke:none;" d="M133.333 205.667L133.667 206.333L133.333 205.667M195 205L196 206L195 205M282 205L283 206L282 205z"/>
<path style="fill:#bfbfbf; stroke:none;" d="M294 205L295 206L294 205z"/>
<path style="fill:#7f7f7f; stroke:none;" d="M108 206L109 207L108 206M294 206L295 207L294 206M109 208L110 209L109 208M134 208L135 209L134 208M223 209L223 212L224 212L223 209M280.333 209.667L280.667 210.333L280.333 209.667M198 211L199 212L198 211M111 212L112 213L111 212M136 212L137 213L136 212z"/>
<path style="fill:#3f3f3f; stroke:none;" d="M198 212L199 213L198 212z"/>
<path style="fill:#7f7f7f; stroke:none;" d="M279 212L280 213L279 212z"/>
<path style="fill:#bfbfbf; stroke:none;" d="M291 212L292 213L291 212z"/>
<path style="fill:#7f7f7f; stroke:none;" d="M291 213L292 214L291 213M112.333 214.667L112.667 215.333L112.333 214.667M137.333 214.667L137.667 215.333L137.333 214.667M277 216L278 217L277 216M290 216L291 217L290 216z"/>
<path style="fill:#ffffff; stroke:none;" d="M0 217L0 400L183 400L183 399C115.713 399 47.5887 347.458 19.8858 288C14.0809 275.541 8.52656 262.452 5.51389 249C3.3346 239.269 3.7084 225.838 0 217z"/>
<path style="fill:#7f7f7f; stroke:none;" d="M226.333 217.667L226.667 218.333L226.333 217.667z"/>
<path style="fill:#ffffff; stroke:none;" d="M399 217C399 307.688 307.688 399 217 399L217 400L400 400L400 271L400 235L399 217z"/>
<path style="fill:#7f7f7f; stroke:none;" d="M276.333 218.667L276.667 219.333L276.333 218.667M114 219L115 220L114 219M139 219L140 220L139 219M198 219L199 220L198 219M288 219L289 220L288 219M287 222L288 223L287 222M116.333 223.667L116.667 224.333L116.333 223.667M141.333 223.667L141.667 224.333L141.333 223.667M274 223L275 224L274 223z"/>
<path style="fill:#3f3f3f; stroke:none;" d="M287 223L288 224L287 223z"/>
<path style="fill:#7f7f7f; stroke:none;" d="M1 225L1 231L2 231L1 225M398 225L398 231L399 231L398 225M117 226L118 227L117 226M142 226L143 227L142 226M194 226L195 227L194 226M230 226L231 227L230 226M273 226L274 227L273 226M205 227L206 228L205 227z"/>
<path style="fill:#bfbfbf; stroke:none;" d="M119 230L120 231L119 230z"/>
<path style="fill:#3f3f3f; stroke:none;" d="M144 230L145 231L144 230z"/>
<path style="fill:#7f7f7f; stroke:none;" d="M192 230L193 231L192 230M203 230L204 231L203 230z"/>
<path style="fill:#bfbfbf; stroke:none;" d="M283 230L284 231L283 230z"/>
<path style="fill:#7f7f7f; stroke:none;" d="M119 231L120 232L119 231M144 231L145 232L144 231M283.333 231.667L283.667 232.333L283.333 231.667M191 232L192 233L191 232M208 232L209 233L208 232M120 233L121 234L120 233M145 233L146 234L145 233z"/>
<path style="fill:#bfbfbf; stroke:none;" d="M191 233L192 234L191 233M201 233L202 234L201 233z"/>
<path style="fill:#3f3f3f; stroke:none;" d="M208 233L209 234L208 233z"/>
<path style="fill:#7f7f7f; stroke:none;" d="M233 233L234 234L233 233M201 234L202 235L201 234M269.333 234.667L269.667 235.333L269.333 234.667M122 237L123 238L122 237M147 237L148 238L147 237M188 237L189 238L188 237M210 237L211 238L210 237z"/>
<path style="fill:#bfbfbf; stroke:none;" d="M280 237L281 238L280 237z"/>
<path style="fill:#7f7f7f; stroke:none;" d="M280.333 238.667L280.667 239.333L280.333 238.667M123.333 239.667L123.667 240.333L123.333 239.667M148.333 239.667L148.667 240.333L148.333 239.667M187.333 239.667L187.667 240.333L187.333 239.667M198 240L199 241L198 240z"/>
<path style="fill:#bfbfbf; stroke:none;" d="M148 241L149 242L148 241z"/>
<path style="fill:#3f3f3f; stroke:none;" d="M198 241L199 242L198 241z"/>
<path style="fill:#7f7f7f; stroke:none;" d="M212.333 241.667L212.667 242.333L212.333 241.667z"/>
<path style="fill:#3f3f3f; stroke:none;" d="M237 241L238 242L237 241M266 241L267 242L266 241z"/>
<path style="fill:#7f7f7f; stroke:none;" d="M279 241L280 242L279 241M237.333 242.667L237.667 243.333L237.333 242.667M266.333 242.667L266.667 243.333L266.333 242.667M125 244L126 245L125 244M150 244L151 245L150 244M196 244L197 245L196 244M213 244L214 245L213 244M126.333 246.667L126.667 247.333L126.333 246.667M151.333 246.667L151.667 247.333L151.333 246.667M5 247L5 250L6 250L5 247M183 247L184 248L183 247M276 247L277 248L276 247M394 247L394 250L395 250L394 247z"/>
<path style="fill:#3f3f3f; stroke:none;" d="M126 248L127 249L126 248z"/>
<path style="fill:#bfbfbf; stroke:none;" d="M151 248L152 249L151 248M183 248L184 249L183 248z"/>
<path style="fill:#7f7f7f; stroke:none;" d="M194 248L195 249L194 248M215 248L216 249L215 248M240 248L241 249L240 248z"/>
<path style="fill:#3f3f3f; stroke:none;" d="M276 248L277 249L276 248z"/>
<path style="fill:#7f7f7f; stroke:none;" d="M216 250L217 251L216 250M128 251L129 252L128 251M153 251L154 252L153 251M192 251L193 252L192 251z"/>
<path style="fill:#3f3f3f; stroke:none;" d="M216 251L217 252L216 251z"/>
<path style="fill:#7f7f7f; stroke:none;" d="M241 251L242 252L241 251M262 251L263 252L262 251M180.333 252.667L180.667 253.333L180.333 252.667M191.333 253.667L191.667 254.333L191.333 253.667M273.333 254.667L273.667 255.333L273.333 254.667M7 255L8 256L7 255z"/>
<path style="fill:#bfbfbf; stroke:none;" d="M130 255L131 256L130 255z"/>
<path style="fill:#3f3f3f; stroke:none;" d="M155 255L156 256L155 255z"/>
<path style="fill:#7f7f7f; stroke:none;" d="M179 255L180 256L179 255M218 255L219 256L218 255M243 255L244 256L243 255M392 255L393 256L392 255M130 256L131 257L130 256M155 256L156 257L155 256M244.333 257.667L244.667 258.333L244.333 257.667z"/>
<path style="fill:#3f3f3f; stroke:none;" d="M8 258L9 259L8 258z"/>
<path style="fill:#7f7f7f; stroke:none;" d="M131 258L132 259L131 258M177 258L178 259L177 258M219 258L220 259L219 258z"/>
<path style="fill:#3f3f3f; stroke:none;" d="M391 258L392 259L391 258z"/>
<path style="fill:#7f7f7f; stroke:none;" d="M8.33333 259.667L8.66667 260.333L8.33333 259.667M258 259L258 262L259 262L258 259M391.333 259.667L391.667 260.333L391.333 259.667M176.333 260.667L176.667 261.333L176.333 260.667M187 261L188 262L187 261z"/>
<path style="fill:#bfbfbf; stroke:none;" d="M133 262L134 263L133 262z"/>
<path style="fill:#3f3f3f; stroke:none;" d="M158 262L159 263L158 262M187 262L188 263L187 262z"/>
<path style="fill:#7f7f7f; stroke:none;" d="M246 262L247 263L246 262M133 263L134 264L133 263M158.333 263.667L158.667 264.333L158.333 263.667M269.333 263.667L269.667 264.333L269.333 263.667M134 266L135 267L134 266M159 266L160 267L159 266M173 266L174 267L173 266z"/>
<path style="fill:#bfbfbf; stroke:none;" d="M223 266L224 267L223 266z"/>
<path style="fill:#3f3f3f; stroke:none;" d="M248 266L249 267L248 266z"/>
<path style="fill:#7f7f7f; stroke:none;" d="M268 266L269 267L268 266M223.333 267.667L223.667 268.333L223.333 267.667M248 267L249 268L248 267M255.333 267.667L255.667 268.333L255.333 267.667M136 269L137 270L136 269M161 269L162 270L161 269z"/>
<path style="fill:#3f3f3f; stroke:none;" d="M183 269L184 270L183 269z"/>
<path style="fill:#7f7f7f; stroke:none;" d="M249 269L250 270L249 269M12.3333 270.667L12.6667 271.333L12.3333 270.667M266.333 270.667L266.667 271.333L266.333 270.667M387.333 270.667L387.667 271.333L387.333 270.667M137 272L138 273L137 272M162 272L163 273L162 272z"/>
<path style="fill:#3f3f3f; stroke:none;" d="M137 273L138 274L137 273z"/>
<path style="fill:#bfbfbf; stroke:none;" d="M162 273L163 274L162 273z"/>
<path style="fill:#3f3f3f; stroke:none;" d="M169 273L170 274L169 273M251 273L252 274L251 273z"/>
<path style="fill:#7f7f7f; stroke:none;" d="M169 274L170 275L169 274M180.333 274.667L180.667 275.333L180.333 274.667M226.333 274.667L226.667 275.333L226.333 274.667M139 276L140 277L139 276M168 276L169 277L168 276M16 280L17 281L16 280z"/>
<path style="fill:#bfbfbf; stroke:none;" d="M141 280L142 281L141 280z"/>
<path style="fill:#7f7f7f; stroke:none;" d="M177 280L178 281L177 280M262 280L263 281L262 280M383 280L384 281L383 280M141 281L142 282L141 281M176 282L177 283L176 282z"/>
<path style="fill:#3f3f3f; stroke:none;" d="M176 283L177 284L176 283z"/>
<path style="fill:#bfbfbf; stroke:none;" d="M230 283L231 284L230 283z"/>
<path style="fill:#7f7f7f; stroke:none;" d="M230 284L231 285L230 284M19 287L20 288L19 287z"/>
<path style="fill:#bfbfbf; stroke:none;" d="M144 287L145 288L144 287z"/>
<path style="fill:#7f7f7f; stroke:none;" d="M380 287L381 288L380 287M144.333 288.667L144.667 289.333L144.333 288.667M173.333 288.667L173.667 289.333L173.333 288.667M258.333 288.667L258.667 289.333L258.333 288.667M21 291L22 292L21 291M145 291L146 292L145 291M172 291L173 292L172 291M233 291L234 292L233 291M378 291L379 292L378 291z"/>
<path style="fill:#3f3f3f; stroke:none;" d="M23 294L24 295L23 294z"/>
<path style="fill:#7f7f7f; stroke:none;" d="M147 294L148 295L147 294M170 294L171 295L170 294M234 294L235 295L234 294z"/>
<path style="fill:#3f3f3f; stroke:none;" d="M376 294L377 295L376 294z"/>
<path style="fill:#7f7f7f; stroke:none;" d="M23 295L24 296L23 295M255 295L255 298L256 298L255 295M376 295L377 296L376 295M169.333 296.667L169.667 297.333L169.333 296.667M148 297L149 298L148 297M25 298L26 299L25 298z"/>
<path style="fill:#3f3f3f; stroke:none;" d="M148 298L149 299L148 298z"/>
<path style="fill:#7f7f7f; stroke:none;" d="M374 298L375 299L374 298M26 300L27 301L26 300M237 300L238 301L237 300M373 300L374 301L373 300z"/>
<path style="fill:#bfbfbf; stroke:none;" d="M26 301L27 302L26 301z"/>
<path style="fill:#3f3f3f; stroke:none;" d="M237 301L238 302L237 301z"/>
<path style="fill:#bfbfbf; stroke:none;" d="M373 301L374 302L373 301z"/>
<path style="fill:#7f7f7f; stroke:none;" d="M166.333 302.667L166.667 303.333L166.333 302.667M151 304L152 305L151 304M29 305L30 306L29 305z"/>
<path style="fill:#3f3f3f; stroke:none;" d="M151 305L152 306L151 305z"/>
<path style="fill:#7f7f7f; stroke:none;" d="M165 305L166 306L165 305M239 305L240 306L239 305M251 305L252 306L251 305M370 305L371 306L370 305M30.3333 306.667L30.6667 307.333L30.3333 306.667M369.333 306.667L369.667 307.333L369.333 306.667M31 308L32 309L31 308M163 308L164 309L163 308M250 308L251 309L250 308M368 308L369 309L368 308M241.333 309.667L241.667 310.333L241.333 309.667M162.333 310.667L162.667 311.333L162.333 310.667M33 311L34 312L33 311M366 311L367 312L366 311z"/>
<path style="fill:#bfbfbf; stroke:none;" d="M33 312L34 313L33 312M155 312L156 313L155 312z"/>
<path style="fill:#7f7f7f; stroke:none;" d="M161 312L162 313L161 312M242 312L243 313L242 312M248 312L249 313L248 312z"/>
<path style="fill:#bfbfbf; stroke:none;" d="M366 312L367 313L366 312z"/>
<path style="fill:#7f7f7f; stroke:none;" d="M37 317L38 318L37 317M362 317L363 318L362 317M41 322L42 323L41 322M358 322L359 323L358 322z"/>
<path style="fill:#bfbfbf; stroke:none;" d="M41 323L42 324L41 323M358 323L359 324L358 323z"/>
<path style="fill:#7f7f7f; stroke:none;" d="M44 326L45 327L44 326M355 326L356 327L355 326z"/>
<path style="fill:#3f3f3f; stroke:none;" d="M48 330L49 331L48 330M351 330L352 331L351 330z"/>
<path style="fill:#7f7f7f; stroke:none;" d="M50 333L51 334L50 333M349 333L350 334L349 333M51 334L52 335L51 334M348 334L349 335L348 334M54 337L55 338L54 337M345 337L346 338L345 337M55 338L56 339L55 338M344 338L345 339L344 338z"/>
<path style="fill:#3f3f3f; stroke:none;" d="M58 341L59 342L58 341M341 341L342 342L341 341z"/>
<path style="fill:#7f7f7f; stroke:none;" d="M61 344L62 345L61 344M338 344L339 345L338 344M62 345L63 346L62 345M337 345L338 346L337 345M65 348L66 349L65 348M334 348L335 349L334 348M66 349L67 350L66 349M333 349L334 350L333 349z"/>
<path style="fill:#3f3f3f; stroke:none;" d="M69 351L70 352L69 351M330 351L331 352L330 351z"/>
<path style="fill:#7f7f7f; stroke:none;" d="M73 355L74 356L73 355M326 355L327 356L326 355z"/>
<path style="fill:#bfbfbf; stroke:none;" d="M76 358L77 359L76 358z"/>
<path style="fill:#7f7f7f; stroke:none;" d="M77 358L78 359L77 358M322 358L323 359L322 358z"/>
<path style="fill:#bfbfbf; stroke:none;" d="M323 358L324 359L323 358z"/>
<path style="fill:#7f7f7f; stroke:none;" d="M82 362L83 363L82 362M317 362L318 363L317 362z"/>
<path style="fill:#bfbfbf; stroke:none;" d="M87 366L88 367L87 366z"/>
<path style="fill:#7f7f7f; stroke:none;" d="M88 366L89 367L88 366M311 366L312 367L311 366z"/>
<path style="fill:#bfbfbf; stroke:none;" d="M312 366L313 367L312 366z"/>
<path style="fill:#7f7f7f; stroke:none;" d="M91 368L92 369L91 368M308 368L309 369L308 368M92.6667 369.333L93.3333 369.667L92.6667 369.333M306.667 369.333L307.333 369.667L306.667 369.333M94 370L95 371L94 370M305 370L306 371L305 370z"/>
<path style="fill:#bfbfbf; stroke:none;" d="M98 373L99 374L98 373z"/>
<path style="fill:#7f7f7f; stroke:none;" d="M99 373L100 374L99 373M300 373L301 374L300 373z"/>
<path style="fill:#bfbfbf; stroke:none;" d="M301 373L302 374L301 373z"/>
<path style="fill:#7f7f7f; stroke:none;" d="M101 374L102 375L101 374M298 374L299 375L298 374M104 376L105 377L104 376z"/>
<path style="fill:#3f3f3f; stroke:none;" d="M105 376L106 377L105 376M294 376L295 377L294 376z"/>
<path style="fill:#7f7f7f; stroke:none;" d="M295 376L296 377L295 376M108 378L109 379L108 378M291 378L292 379L291 378M112 380L113 381L112 380M287 380L288 381L287 380M119 383L120 384L119 383M280 383L281 384L280 383M128.667 387.333L129.333 387.667L128.667 387.333M270.667 387.333L271.333 387.667L270.667 387.333M139.667 391.333L140.333 391.667L139.667 391.333z"/>
<path style="fill:#3f3f3f; stroke:none;" d="M141 391L142 392L141 391M258 391L259 392L258 391z"/>
<path style="fill:#7f7f7f; stroke:none;" d="M259.667 391.333L260.333 391.667L259.667 391.333M144 392L145 393L144 392M255 392L256 393L255 392M150 394L150 395L153 395L150 394M247 394L247 395L250 395L247 394M169 398L169 399L175 399L169 398M225 398L225 399L231 399L225 398z"/>
</svg>
